<?xml version="1.0" encoding="UTF-8"?>
<svg xmlns="http://www.w3.org/2000/svg">
    <defs>
        <symbol viewBox="0 0 24 24" id="time-ico">
            <g fill-rule="evenodd">
                <path d="m21.545 8.993c-.986-3.108-3.43-5.552-6.542-6.54-1.939-.602-4.061-.603-6.009.001-3.108.986-5.552 3.43-6.54 6.542-.301.971-.454 1.982-.454 3.004 0 5.514 4.486 10 10 10s10-4.486 10-10c0-1.022-.153-2.033-.455-3.007zm-8.545 3.007c0 .552-.448 1-1 1h-5c-.552 0-1-.448-1-1s.448-1 1-1h4v-4c0-.552.448-1 1-1s1 .448 1 1z" />
                <path d="m15.299 1.499c3.426 1.087 6.115 3.775 7.199 7.192.016.052.027.104.042.156.919-.96 1.46-2.238 1.46-3.607 0-2.889-2.351-5.24-5.24-5.24-1.369 0-2.646.541-3.606 1.46.048.014.097.024.145.039z" />
                <path d="m1.499 8.701c1.087-3.426 3.775-6.115 7.192-7.199.051-.016.104-.027.156-.042-.96-.919-2.238-1.46-3.607-1.46-2.889 0-5.24 2.351-5.24 5.24 0 1.369.541 2.646 1.459 3.606.015-.048.025-.097.04-.145z" />
                <path d="m18.729 20.683c-.526.409-1.087.772-1.683 1.081l1.106 1.767c.19.303.516.469.849.469.181 0 .365-.049.53-.152.468-.293.61-.91.317-1.378z" />
                <path d="m5.271 20.683-1.119 1.787c-.293.468-.151 1.085.317 1.378.165.103.349.152.53.152.333 0 .659-.166.849-.469l1.106-1.767c-.596-.31-1.157-.673-1.683-1.081z" />
            </g>
        </symbol>
        <symbol viewBox="0 0 22.8 18" id="phone-ico">
            <g fill-rule="evenodd">
                <path class="cls-1" d="M11.52,3.29C7.71,3.25,5,3,4.67,7.18H0C0,.85,5.77,0,11.4,0S22.78.85,22.78,7.18H18.09C17.77,3.1,15.36,3.33,11.52,3.29ZM4.69,7.7a2.74,2.74,0,0,1,0,.5c-.22,1.08-1.16,1-2.3,1C1.05,9.21,0,9.3,0,7.7ZM6.52,6.61V6c0-.28.35-.3.77-.3H8c.42,0,.76,0,.76.3V7h4.88V6c0-.28.34-.3.76-.3h.69c.42,0,.76,0,.76.3v1.2a46.35,46.35,0,0,1,4.88,6.37v3.83a.64.64,0,0,1-.66.63H2.31a.64.64,0,0,1-.66-.63V13.56a46.62,46.62,0,0,1,4.88-6.4V6.61Zm7.3,7.46a.62.62,0,1,0-.64-.62.63.63,0,0,0,.64.62Zm0-2.13a.62.62,0,0,0,.6-.64.62.62,0,1,0-.6.64Zm0-2.12a.63.63,0,0,0,.6-.65.62.62,0,0,0-1.24,0,.63.63,0,0,0,.64.62Zm-2.66,4.25a.62.62,0,1,0-.64-.62.63.63,0,0,0,.64.62Zm0-2.13a.62.62,0,0,0,.6-.64.62.62,0,1,0-.6.64Zm0-2.12a.63.63,0,0,0,.6-.65.62.62,0,0,0-1.24,0,.63.63,0,0,0,.64.62ZM8.51,14.07a.62.62,0,1,0-.65-.62.63.63,0,0,0,.64.62Zm0-2.13a.62.62,0,0,0,.59-.64.62.62,0,1,0-.6.64Zm0-2.12a.63.63,0,0,0,.59-.65.62.62,0,0,0-1.24,0,.63.63,0,0,0,.64.62ZM18.13,8.2a2.73,2.73,0,0,1-.05-.5H22.8c0,1.52-1.06,1.44-2.36,1.44-1.14,0-2.09.06-2.31-.93Z" />
            </g>
        </symbol>
        <symbol viewBox="0 0 512 512" id="shape-ico">
            <g fill-rule="evenodd">
               <path d="M96,416H64v-80H32v80H0v96h96v-32h80v-32H96V416z M64,480H32v-32h32V480z"/>
			<path d="M96,0H0v96h32v80h32V96h32V64h80V32H96V0z M64,64H32V32h32V64z"/>
			<path d="M416,0v32h-80v32h80v32h32v80h32V96h32V0H416z M480,64h-32V32h32V64z"/>
			<rect x="208" y="32" width="32" height="32"/>
			<rect x="272" y="32" width="32" height="32"/>
			<rect x="272" y="448" width="32" height="32"/>
			<rect x="208" y="448" width="32" height="32"/>
			<rect x="32" y="272" width="32" height="32"/>
			<rect x="32" y="208" width="32" height="32"/>
			<rect x="448" y="208" width="32" height="32"/>
			<rect x="448" y="272" width="32" height="32"/>
			<path d="M480,336h-32v80h-32v32h-80v32h80v32h96v-96h-32V336z M480,480h-32v-32h32V480z"/>
            </g>
        </symbol>
        
        <symbol viewBox="0 0 511.626 511.626" id="envelope-ico">
            <g fill-rule="evenodd">
                <g>
                    <path d="M49.106,178.729c6.472,4.567,25.981,18.131,58.528,40.685c32.548,22.554,57.482,39.92,74.803,52.099
			c1.903,1.335,5.946,4.237,12.131,8.71c6.186,4.476,11.326,8.093,15.416,10.852c4.093,2.758,9.041,5.852,14.849,9.277
			c5.806,3.422,11.279,5.996,16.418,7.7c5.14,1.718,9.898,2.569,14.275,2.569h0.287h0.288c4.377,0,9.137-0.852,14.277-2.569
			c5.137-1.704,10.615-4.281,16.416-7.7c5.804-3.429,10.752-6.52,14.845-9.277c4.093-2.759,9.229-6.376,15.417-10.852
			c6.184-4.477,10.232-7.375,12.135-8.71c17.508-12.179,62.051-43.11,133.615-92.79c13.894-9.703,25.502-21.411,34.827-35.116
			c9.332-13.699,13.993-28.07,13.993-43.105c0-12.564-4.523-23.319-13.565-32.264c-9.041-8.947-19.749-13.418-32.117-13.418H45.679
			c-14.655,0-25.933,4.948-33.832,14.844C3.949,79.562,0,91.934,0,106.779c0,11.991,5.236,24.985,15.703,38.974
			C26.169,159.743,37.307,170.736,49.106,178.729z" />
                    <path d="M483.072,209.275c-62.424,42.251-109.824,75.087-142.177,98.501c-10.849,7.991-19.65,14.229-26.409,18.699
			c-6.759,4.473-15.748,9.041-26.98,13.702c-11.228,4.668-21.692,6.995-31.401,6.995h-0.291h-0.287
			c-9.707,0-20.177-2.327-31.405-6.995c-11.228-4.661-20.223-9.229-26.98-13.702c-6.755-4.47-15.559-10.708-26.407-18.699
			c-25.697-18.842-72.995-51.68-141.896-98.501C17.987,202.047,8.375,193.762,0,184.437v226.685c0,12.57,4.471,23.319,13.418,32.265
			c8.945,8.949,19.701,13.422,32.264,13.422h420.266c12.56,0,23.315-4.473,32.261-13.422c8.949-8.949,13.418-19.694,13.418-32.265
			V184.437C503.441,193.569,493.927,201.854,483.072,209.275z" />
                </g>
            </g>
        </symbol>
        <symbol viewBox="0 0 30.23 29.82" id="vk-ico">
            <g fill-rule="evenodd">
                <g>
                    <path d="M15.11,0A15,15,0,0,0,0,14.91,15,15,0,0,0,15.11,29.82,15,15,0,0,0,30.23,14.91,15,15,0,0,0,15.11,0Zm4.71,16.76c.1.12.34.36.71.72h0l0,0a8.75,8.75,0,0,1,1.67,1.94.54.54,0,0,1,.06.11,1,1,0,0,1,.06.23.6.6,0,0,1,0,.3.45.45,0,0,1-.21.24,1.09,1.09,0,0,1-.52.11l-2.24,0a.94.94,0,0,1-.49,0,1.81,1.81,0,0,1-.46-.2l-.18-.1a4.65,4.65,0,0,1-.61-.56c-.23-.25-.43-.48-.6-.68a3.17,3.17,0,0,0-.53-.51.57.57,0,0,0-.5-.13l-.07,0a.53.53,0,0,0-.15.12,1.34,1.34,0,0,0-.19.26,2,2,0,0,0-.14.46,2.43,2.43,0,0,0-.06.68,1,1,0,0,1,0,.24.48.48,0,0,1-.07.16l0,0a.73.73,0,0,1-.47.2h-1a4.07,4.07,0,0,1-1.28-.15,4.84,4.84,0,0,1-1.15-.46c-.33-.19-.64-.39-.91-.58a5.67,5.67,0,0,1-.61-.5l-.22-.22a2.25,2.25,0,0,1-.24-.26c-.11-.11-.32-.38-.63-.79s-.63-.86-.93-1.33-.66-1.08-1.07-1.85S6,12.75,5.63,11.92a.6.6,0,0,1-.06-.23.22.22,0,0,1,0-.14l0-.06a.63.63,0,0,1,.5-.16l2.4,0a.66.66,0,0,1,.2.06.53.53,0,0,1,.15.07l0,0a.56.56,0,0,1,.21.28c.12.29.25.59.4.9s.27.55.36.72l.14.25a9.19,9.19,0,0,0,.49.91,3.94,3.94,0,0,0,.43.6,1.61,1.61,0,0,0,.36.34.51.51,0,0,0,.53.08l.05-.05a.9.9,0,0,0,.1-.19,1.25,1.25,0,0,0,.12-.41,6.83,6.83,0,0,0,.08-.71,6.57,6.57,0,0,0,0-1.09,3.91,3.91,0,0,0-.07-.64,1.64,1.64,0,0,0-.13-.41l-.05-.1a1.06,1.06,0,0,0-.74-.38c-.08,0-.06-.08,0-.21a1.15,1.15,0,0,1,.33-.26,5.86,5.86,0,0,1,2.1-.21,5.44,5.44,0,0,1,1.18.11,1,1,0,0,1,.29.12.46.46,0,0,1,.18.21,1.52,1.52,0,0,1,.09.28,2.1,2.1,0,0,1,0,.4v.48c0,.15,0,.36,0,.62s0,.5,0,.72c0,.07,0,.19,0,.37s0,.32,0,.42a2.36,2.36,0,0,0,0,.35,1,1,0,0,0,.1.35.51.51,0,0,0,.2.21l.14,0c.06,0,.13,0,.23-.1l.34-.3a4.83,4.83,0,0,0,.45-.59c.18-.26.38-.58.6-.94a13.77,13.77,0,0,0,.93-2,1,1,0,0,1,.09-.15.46.46,0,0,1,.1-.1l0,0,.05,0,.11,0a.38.38,0,0,1,.18,0h2.52a1.27,1.27,0,0,1,.56,0,.5.5,0,0,1,.27.14l.05.09c.14.37-.3,1.23-1.31,2.58l-.57.74a6.26,6.26,0,0,0-.79,1.15A.68.68,0,0,0,19.82,16.76Z" />
                </g>
            </g>
        </symbol>
        <symbol viewBox="0 0 30.23 29.82" id="fb-ico">
            <g fill-rule="evenodd">
                <g>
                    <path d="M15.11,0A15,15,0,0,0,0,14.91,15,15,0,0,0,15.11,29.82,15,15,0,0,0,30.23,14.91,15,15,0,0,0,15.11,0Zm3.73,10.11H17.49c-1.06,0-1.27.51-1.27,1.25V13h2.53l-.33,2.55h-2.2v6.55H13.59V15.54h-2.2V13h2.2V11.1a3.07,3.07,0,0,1,3.28-3.37,18.44,18.44,0,0,1,2,.1Z" />
                </g>
            </g>
        </symbol>
        <symbol viewBox="0 0 957.599 957.6" id="doc-ico">
            <g fill-rule="evenodd">
                <g>
                    <path d="M817.9,108.4h-28v687.901c0,45.699-37.2,82.898-82.899,82.898H423.3H197.7v25.5c0,29.201,23.7,52.9,52.9,52.9h283.6H817.8
		c29.2,0,52.899-23.699,52.899-52.9V161.3C870.7,132.1,847.1,108.4,817.9,108.4z" />
                    <path d="M423.3,849.199h283.6c29.2,0,52.9-23.699,52.9-52.898V108.4V52.9c0-29.2-23.7-52.9-52.9-52.9H423.3H329v17.5
		c0.199,1.8,0.3,3.7,0.3,5.6v115.3V168c0,41.1-33.4,74.5-74.5,74.5h-29.6H109.9c-1.5,0-3.1-0.1-4.6-0.2H86.9v554.001
		c0,29.199,23.7,52.898,52.9,52.898h58H423.3L423.3,849.199z M434,669.4H249.1c-13.8,0-25-11.201-25-25c0-13.801,11.2-25,25-25h185
		c13.8,0,25,11.199,25,25C459.1,658.199,447.8,669.4,434,669.4z M619,541.801H249.1c-13.8,0-25-11.201-25-25c0-13.801,11.2-25,25-25
		H619c13.8,0,25,11.199,25,25C644,530.6,632.8,541.801,619,541.801z M249.1,356.3H619c13.8,0,25,11.2,25,25c0,13.8-11.2,25-25,25
		H249.1c-13.8,0-25-11.2-25-25C224.1,367.5,235.3,356.3,249.1,356.3z" />
                    <path d="M109.9,212.5h144.9c0.1,0,0.3,0,0.4,0c24.2-0.2,43.8-19.8,44-44c0-0.1,0-0.3,0-0.4v-145c0-13.4-11-22.3-22.399-22.3
		c-5.5,0-11,2-15.6,6.6L94.1,174.5C80.1,188.5,90,212.5,109.9,212.5z" />
                </g>
            </g>
        </symbol>
        <symbol viewBox="0 0 488.152 488.152" id="date-ico">
            <g fill-rule="evenodd">
                <g>
                    <path d="M177.854,269.311c0-6.115-4.96-11.069-11.08-11.069h-38.665c-6.113,0-11.074,4.954-11.074,11.069v38.66
			c0,6.123,4.961,11.079,11.074,11.079h38.665c6.12,0,11.08-4.956,11.08-11.079V269.311L177.854,269.311z" />
                    <path d="M274.483,269.311c0-6.115-4.961-11.069-11.069-11.069h-38.67c-6.113,0-11.074,4.954-11.074,11.069v38.66
			c0,6.123,4.961,11.079,11.074,11.079h38.67c6.108,0,11.069-4.956,11.069-11.079V269.311z" />
                    <path d="M371.117,269.311c0-6.115-4.961-11.069-11.074-11.069h-38.665c-6.12,0-11.08,4.954-11.08,11.069v38.66
			c0,6.123,4.96,11.079,11.08,11.079h38.665c6.113,0,11.074-4.956,11.074-11.079V269.311z" />
                    <path d="M177.854,365.95c0-6.125-4.96-11.075-11.08-11.075h-38.665c-6.113,0-11.074,4.95-11.074,11.075v38.653
			c0,6.119,4.961,11.074,11.074,11.074h38.665c6.12,0,11.08-4.956,11.08-11.074V365.95L177.854,365.95z" />
                    <path d="M274.483,365.95c0-6.125-4.961-11.075-11.069-11.075h-38.67c-6.113,0-11.074,4.95-11.074,11.075v38.653
			c0,6.119,4.961,11.074,11.074,11.074h38.67c6.108,0,11.069-4.956,11.069-11.074V365.95z" />
                    <path d="M371.117,365.95c0-6.125-4.961-11.075-11.069-11.075h-38.67c-6.12,0-11.08,4.95-11.08,11.075v38.653
			c0,6.119,4.96,11.074,11.08,11.074h38.67c6.108,0,11.069-4.956,11.069-11.074V365.95L371.117,365.95z" />
                    <path d="M440.254,54.354v59.05c0,26.69-21.652,48.198-48.338,48.198h-30.493c-26.688,0-48.627-21.508-48.627-48.198V54.142
			h-137.44v59.262c0,26.69-21.938,48.198-48.622,48.198H96.235c-26.685,0-48.336-21.508-48.336-48.198v-59.05
			C24.576,55.057,5.411,74.356,5.411,98.077v346.061c0,24.167,19.588,44.015,43.755,44.015h389.82
			c24.131,0,43.755-19.889,43.755-44.015V98.077C482.741,74.356,463.577,55.057,440.254,54.354z M426.091,422.588
			c0,10.444-8.468,18.917-18.916,18.917H80.144c-10.448,0-18.916-8.473-18.916-18.917V243.835c0-10.448,8.467-18.921,18.916-18.921
			h327.03c10.448,0,18.916,8.473,18.916,18.921L426.091,422.588L426.091,422.588z" />
                    <path d="M96.128,129.945h30.162c9.155,0,16.578-7.412,16.578-16.567V16.573C142.868,7.417,135.445,0,126.29,0H96.128
			C86.972,0,79.55,7.417,79.55,16.573v96.805C79.55,122.533,86.972,129.945,96.128,129.945z" />
                    <path d="M361.035,129.945h30.162c9.149,0,16.572-7.412,16.572-16.567V16.573C407.77,7.417,400.347,0,391.197,0h-30.162
			c-9.154,0-16.577,7.417-16.577,16.573v96.805C344.458,122.533,351.881,129.945,361.035,129.945z" />
                </g>
            </g>
        </symbol>
        <symbol viewBox="0 0 30.26 30.26" id="in-ico">
            <g fill-rule="evenodd">
                <g>
                    <path class="cls-1" d="M20.83,10.81a2.38,2.38,0,0,0-1.39-1.39,3.93,3.93,0,0,0-1.36-.25c-.77,0-1,0-2.95,0s-2.19,0-3,0a4,4,0,0,0-1.36.25,2.46,2.46,0,0,0-1.39,1.39,4,4,0,0,0-.25,1.36c0,.77,0,1,0,3s0,2.18,0,2.95a3.93,3.93,0,0,0,.25,1.36,2.38,2.38,0,0,0,1.39,1.39,4,4,0,0,0,1.36.25c.77,0,1,.05,3,.05s2.18,0,2.95-.05a3.93,3.93,0,0,0,1.36-.25,2.31,2.31,0,0,0,1.39-1.39,3.93,3.93,0,0,0,.25-1.36c0-.77.05-1,.05-2.95s0-2.19-.05-3A4,4,0,0,0,20.83,10.81Zm-5.7,8.06a3.75,3.75,0,1,1,3.74-3.74A3.74,3.74,0,0,1,15.13,18.87ZM19,12.38a.88.88,0,1,1,.87-.88A.87.87,0,0,1,19,12.38Z" />
                    <path d="M15.13,13.07a2.06,2.06,0,1,0,2.06,2.06A2.06,2.06,0,0,0,15.13,13.07Z" />
                    <path d="M15.13,0A15.13,15.13,0,1,0,30.26,15.13,15.12,15.12,0,0,0,15.13,0Zm7.75,18.34a5.93,5.93,0,0,1-.36,1.9,4,4,0,0,1-2.28,2.28,5.93,5.93,0,0,1-1.9.36c-.83,0-1.09.05-3.21.05s-2.39,0-3.22-.05A5.81,5.81,0,0,1,10,22.52a3.79,3.79,0,0,1-1.38-.9,3.74,3.74,0,0,1-.9-1.38,5.64,5.64,0,0,1-.37-1.9c0-.83,0-1.09,0-3.21s0-2.39,0-3.22A5.53,5.53,0,0,1,7.74,10,4,4,0,0,1,10,7.74a5.53,5.53,0,0,1,1.89-.37c.83,0,1.1,0,3.22,0s2.38,0,3.21,0a5.64,5.64,0,0,1,1.9.37,3.74,3.74,0,0,1,1.38.9,3.79,3.79,0,0,1,.9,1.38,5.81,5.81,0,0,1,.36,1.89c0,.83.05,1.1.05,3.22S22.92,17.51,22.88,18.34Z" />
                </g>
            </g>
        </symbol>
        <symbol viewBox="0 0 28.931 28.932" id="loop-ico">
            <g fill-rule="evenodd">
                <g>
                    <path d="M28.344,25.518l-6.114-6.115c1.486-2.067,2.303-4.537,2.303-7.137c0-3.275-1.275-6.355-3.594-8.672
		C18.625,1.278,15.543,0,12.266,0C8.99,0,5.909,1.275,3.593,3.594C1.277,5.909,0.001,8.99,0.001,12.266
		c0,3.276,1.275,6.356,3.592,8.674c2.316,2.316,5.396,3.594,8.673,3.594c2.599,0,5.067-0.813,7.136-2.303l6.114,6.115
		c0.392,0.391,0.902,0.586,1.414,0.586c0.513,0,1.024-0.195,1.414-0.586C29.125,27.564,29.125,26.299,28.344,25.518z M6.422,18.111
		c-1.562-1.562-2.421-3.639-2.421-5.846S4.86,7.983,6.422,6.421c1.561-1.562,3.636-2.422,5.844-2.422s4.284,0.86,5.845,2.422
		c1.562,1.562,2.422,3.638,2.422,5.845s-0.859,4.283-2.422,5.846c-1.562,1.562-3.636,2.42-5.845,2.42S7.981,19.672,6.422,18.111z" />
                </g>
            </g>
        </symbol>
        <symbol viewBox="0 0 306.773 306.773" id="house-ico">
            <g fill-rule="evenodd">
                <g>
                    <path d="M302.93,149.794c5.561-6.116,5.024-15.49-1.199-20.932L164.63,8.898
		c-6.223-5.442-16.2-5.328-22.292,0.257L4.771,135.258c-6.092,5.585-6.391,14.947-0.662,20.902l3.449,3.592
		c5.722,5.955,14.971,6.665,20.645,1.581l10.281-9.207v134.792c0,8.27,6.701,14.965,14.965,14.965h53.624
		c8.264,0,14.965-6.695,14.965-14.965v-94.3h68.398v94.3c-0.119,8.264,5.794,14.959,14.058,14.959h56.828
		c8.264,0,14.965-6.695,14.965-14.965V154.024c0,0,2.84,2.488,6.343,5.567c3.497,3.073,10.842,0.609,16.403-5.513L302.93,149.794z" />
                </g>
            </g>
        </symbol>
        <symbol viewBox="0 0 512 512" id="download-ico">
            <g fill-rule="evenodd">
                <g>
                    <path d="m409.785156 278.5-153.785156 153.785156-153.785156-153.785156 28.285156-28.285156 105.5 105.5v-355.714844h40v355.714844l105.5-105.5zm102.214844 193.5h-512v40h512zm0 0"/>
                </g>
            </g>
        </symbol>
        <symbol viewBox="0 0 64 64" id="forward-ico">
            <g fill-rule="evenodd">
                <g>
                    <path d="m37.379 12.552c-.799-.761-2.066-.731-2.827.069-.762.8-.73 2.066.069 2.828l15.342 14.551h-39.963c-1.104 0-2 .896-2 2s.896 2 2 2h39.899l-15.278 14.552c-.8.762-.831 2.028-.069 2.828.393.412.92.62 1.448.62.496 0 .992-.183 1.379-.552l17.449-16.62c.756-.755 1.172-1.759 1.172-2.828s-.416-2.073-1.207-2.862z"/>
                </g>
            </g>
        </symbol>
        <symbol viewBox="0 0 321.883 321.883" id="loc-ico">
            <g fill-rule="evenodd">
                <g>
                    <path d="M160.941,0c-69.035,0-125,55.964-125,125.001c0,69.035,85.187,196.882,125,196.882c39.813,0,125-127.847,125-196.882
	C285.941,55.964,229.977,0,160.941,0z M160.941,182.294c-36.341,0-65.801-29.46-65.801-65.802c0-36.34,29.46-65.801,65.801-65.801
	c36.341,0,65.801,29.461,65.801,65.801C226.742,152.834,197.282,182.294,160.941,182.294z"/>
                </g>
            </g>
        </symbol>
        <symbol viewBox="0 0 512.001 512.001" id="romb-ico">
            <g fill-rule="evenodd">
                <g>
                    <g>
                        <path d="M163.05,85.993L4.923,244.12c-6.563,6.558-6.563,17.201,0,23.76l57.311,57.311l170.007-170.007L163.05,85.993z" />
                    </g>
                </g>
                <g>
                    <g>
                        <path d="M267.881,4.923c-6.564-6.564-17.197-6.564-23.76,0L186.81,62.234l170.007,170.007l69.191-69.191L267.881,4.923z" />
                    </g>
                </g>
                <g>
                    <g>

                        <rect x="201.506" y="201.521" transform="matrix(0.7071 -0.7071 0.7071 0.7071 -106.0452 255.9954)" width="108.97" height="108.97" />
                    </g>
                </g>
                <g>
                    <g>
                        <path d="M155.184,279.76l-69.19,69.191L244.12,507.078c6.564,6.564,17.196,6.564,23.76,0l57.311-57.311L155.184,279.76z" />
                    </g>
                </g>
                <g>
                    <g>
                        <path d="M507.078,244.121l-57.311-57.311L279.76,356.816l69.191,69.191l158.127-158.127
			C513.641,261.323,513.641,250.679,507.078,244.121z" />
                    </g>
                </g>
            </g>
        </symbol>
        <symbol viewBox="0 0 512 512" id="correct-ico">
            <g fill-rule="evenodd">
                <g>
                    <path d="m256 0c-141.164062 0-256 114.835938-256 256s114.835938 256 256 256 256-114.835938 256-256-114.835938-256-256-256zm129.75 201.75-138.667969 138.664062c-4.160156 4.160157-9.621093 6.253907-15.082031 6.253907s-10.921875-2.09375-15.082031-6.253907l-69.332031-69.332031c-8.34375-8.339843-8.34375-21.824219 0-30.164062 8.339843-8.34375 21.820312-8.34375 30.164062 0l54.25 54.25 123.585938-123.582031c8.339843-8.34375 21.820312-8.34375 30.164062 0 8.339844 8.339843 8.339844 21.820312 0 30.164062zm0 0" />
                </g>
            </g>
        </symbol>
        <symbol viewBox="0 0 477.846 477.846" id="home-b-ico">
            <g fill-rule="evenodd">
                <g>
                    <path d="M472.847,226.846l-34.116-34.116L250.998,4.997c-6.664-6.663-17.468-6.663-24.132,0L39.132,192.73L4.999,226.864
			c-6.548,6.78-6.361,17.584,0.419,24.132c6.614,6.388,17.099,6.388,23.713,0l4.983-5.018v214.801
			c0,9.426,7.641,17.067,17.067,17.067h375.467c9.426,0,17.067-7.641,17.067-17.067V245.978l5,5.001
			c6.78,6.548,17.584,6.36,24.132-0.419C479.235,243.946,479.235,233.46,472.847,226.846z M290.115,443.713h-102.4V307.179h102.4
			V443.713z M409.581,443.713h-85.333v-153.6c0-9.426-7.641-17.067-17.067-17.067H170.648c-9.426,0-17.067,7.641-17.067,17.067
			v153.6H68.248V211.845L238.914,41.178l170.667,170.667V443.713z" />
                </g>
            </g>
        </symbol>
        <symbol viewBox="0 0 40.02 39.99" id="parket-ico">
            <g fill-rule="evenodd">
                <g>
                    <path d="M19.23.33,16.08,3.47,12.93,6.62,9.78,9.77.33,19.21a1.11,1.11,0,0,0,0,1.57h0l3.15,3.15,3.15,3.15,3.15,3.14,9.44,9.44a1.11,1.11,0,0,0,1.58,0L24,36.52l3.15-3.15,3.15-3.15,9.44-9.44a1.11,1.11,0,0,0,0-1.57h0l-3.14-3.15L33.4,12.91,30.25,9.76,20.8.32A1.11,1.11,0,0,0,19.23.33Zm2.36,35.4L20,37.3l-7.87-7.87,1.57-1.57,7.88,7.87Zm3.15-3.15-1.58,1.57-7.87-7.86,1.57-1.58Zm-2.36-8.65,3.15,3.14,2.36,2.36L26.31,31l-7.87-7.87L20,21.57ZM18.44,20l-2.36,2.36L12.93,25.5l-2.36,2.36L9,26.29l7.87-7.87Zm-3.15-3.14L7.42,24.71,5.84,23.14l7.87-7.87ZM12.14,13.7,4.27,21.57,2.69,20l7.88-7.86Zm3.15-6.29,1.57-1.58,7.88,7.87-1.58,1.57Zm2.36,8.65L14.5,12.91l-2.36-2.36L13.71,9l7.88,7.87L20,18.42ZM37.34,20l-7.88,7.87-1.57-1.57,7.87-7.87Zm-3.15-3.14-7.88,7.86-1.57-1.57,7.87-7.87ZM31,13.7l-7.88,7.87L21.59,20,24,17.63l3.15-3.14,2.36-2.36L31,13.7Zm-3.15-3.15-1.58,1.58L18.44,4.26,20,2.69Z" />
                </g>
            </g>
        </symbol>
        <symbol viewBox="0 0 512 512" id="gift-ico">
            <g fill-rule="evenodd">
                <g>
                    <path d="M461.913,99.724h-19.897c5.565-9.696,8.766-20.915,8.766-32.875c0-26.592-15.102-49.804-39.411-60.581
			c-24.311-10.778-51.652-6.378-71.354,11.479l-42.003,38.065c-8.939-13.75-24.427-22.871-42.015-22.871
			c-17.615,0-33.124,9.148-42.056,22.935l-42.074-38.13C152.166-0.109,124.823-4.508,100.516,6.27
			c-24.31,10.775-39.411,33.989-39.411,60.58c0,11.96,3.201,23.178,8.766,32.875H50.087C22.469,99.724,0,122.193,0,149.811v66.783
			c0,9.22,7.475,16.696,16.696,16.696h16.696v228.174c0,27.618,22.469,50.087,50.087,50.087c16.253,0,332.503,0,345.043,0
			c27.618,0,50.087-22.469,50.087-50.087V233.29h16.696c9.22,0,16.696-7.475,16.696-16.696v-66.783
			C512,122.193,489.531,99.724,461.913,99.724z M205.913,478.159H83.478c-9.206,0-16.696-7.49-16.696-16.696V233.29h139.13V478.159z
			 M205.913,199.898c-7.13,0-165.34,0-172.522,0v-50.087c0-9.206,7.49-16.696,16.696-16.696c5.941,0,148.658,0,155.826,0V199.898z
			 M127.371,99.723v0.001c-18.127,0-32.875-14.748-32.875-32.875c0-13.392,7.309-24.627,19.552-30.054
			c4.472-1.982,9.075-2.956,13.601-2.956c7.866,0,15.499,2.944,21.798,8.651l63.155,57.234H127.371z M256,66.333
			c7.879,0,14.485,5.493,16.23,12.847l-16.286,14.759L239.75,79.262C241.463,71.867,248.091,66.333,256,66.333z M272.696,478.159
			h-33.391V233.29h33.391V478.159z M272.696,199.898h-33.391v-66.783c11.935,0,21.339,0,33.391,0V199.898z M362.44,42.491
			c9.924-8.992,23.156-11.12,35.399-5.694c12.242,5.426,19.552,16.662,19.552,30.053c0,18.127-14.748,32.875-32.875,32.875h-85.231
			L362.44,42.491z M445.217,461.464c0,9.206-7.49,16.696-16.696,16.696H306.087V233.29h139.13V461.464z M478.609,199.898
			c-7.184,0-165.396,0-172.522,0v-66.783c7.026,0,149.731,0,155.826,0c9.206,0,16.696,7.49,16.696,16.696V199.898z" />
                </g>
            </g>
        </symbol>
        <symbol viewBox="0 0 17.77 17.76" id="square-ico">
            <g fill-rule="evenodd">
                <g>
                    <path d="M16,17.76H0V0H17.77V10.65H16V1.73H10.62V3.52H8.89V1.73H1.73V8H8.89V6.18h1.73V9.75H1.73V16H8.89V12.4h1.73V16H16v-1.8h1.74v3.54Z" />
                </g>
            </g>
        </symbol>
        <symbol viewBox="0 0 512 512" id="constr-ico">
            <g fill-rule="evenodd">
                <g>
                    <path d="M506.1,254.2l-11.5,14.2l-16.8-14.3L462,238.2V336h-68l0-19.3l0-20.7h28v-98.1L269.9,44.8L256.5,33l-12.6,11.8L90,198.4
	c0,0.2,0,0.4,0,0.6v97h28.8c0.1,0,0.3,0.1,0.3,0.1L119,336H50v-97.7l-30.5,30.4L5.8,254.1l-14.3-13.9L216.2,16
c0.3-0.3,0.5-0.5,0.8-0.8c2.2-2,4.6-3.8,7-5.4c22.4-14.8,52.5-12.9,73,5.5c0.3,0.3,0.6,0.5,0.8,0.8l221,222.4L506.1,254.2z
M441.3,376l-19.3,1.7V472h-28v19.3V512h68V375.1L441.3,376z M119,472H90v-96H70.7H50v136h69v-20.7V472z M256,472c-11,0-20,9-20,20
s9,20,20,20s20-9,20-20S267,472,256,472z M334,472c-11,0-20,9-20,20s9,20,20,20c11,0,20-9,20-20S345,472,334,472z M178,472
c-11,0-20,9-20,20s9,20,20,20c11,0,20-9,20-20S189,472,178,472z M256,296c-11,0-20,9-20,20c0,11,9,20,20,20s20-9,20-20
C276,305,267,296,256,296z M334,296c-11,0-20,9-20,20c0,11,9,20,20,20c11,0,20-9,20-20C354,305,345,296,334,296z M178,296
c-11,0-20,9-20,20c0,11,9,20,20,20c11,0,20-9,20-20C198,305,189,296,178,296z M253.3-21.4 M256.3-24.4L294.1,13L247,24.1l-31.5-7.4
L256.3-24.4z" />
                </g>
            </g>
        </symbol>
        <symbol viewBox="0 0 512.001 512.001" id="floor-ico">
            <g fill-rule="evenodd">
                <g>
                    <g>
                        <path d="M163.05,85.993L4.923,244.12c-6.563,6.558-6.563,17.201,0,23.76l57.311,57.311l170.007-170.007L163.05,85.993z" />
                    </g>
                </g>
                <g>
                    <g>
                        <path d="M267.881,4.923c-6.564-6.564-17.197-6.564-23.76,0L186.81,62.234l170.007,170.007l69.191-69.191L267.881,4.923z" />
                    </g>
                </g>
                <g>
                    <g>

                        <rect x="201.506" y="201.521" transform="matrix(0.7071 -0.7071 0.7071 0.7071 -106.0452 255.9954)" width="108.97" height="108.97" />
                    </g>
                </g>
                <g>
                    <g>
                        <path d="M155.184,279.76l-69.19,69.191L244.12,507.078c6.564,6.564,17.196,6.564,23.76,0l57.311-57.311L155.184,279.76z" />
                    </g>
                </g>
                <g>
                    <g>
                        <path d="M507.078,244.121l-57.311-57.311L279.76,356.816l69.191,69.191l158.127-158.127
			C513.641,261.323,513.641,250.679,507.078,244.121z" />
                    </g>
                </g>
            </g>
        </symbol>
        <symbol viewBox="0 0 512 512" id="phone-call">
            <g fill-rule="evenodd">
                <g>
                    <path d="M436.992,74.953c-99.989-99.959-262.08-99.935-362.039,0.055s-99.935,262.08,0.055,362.039s262.08,99.935,362.039-0.055
			c48.006-48.021,74.968-113.146,74.953-181.047C511.986,188.055,485.005,122.951,436.992,74.953z M387.703,356.605
			c-0.011,0.011-0.022,0.023-0.034,0.034v-0.085l-12.971,12.885c-16.775,16.987-41.206,23.976-64.427,18.432
			c-23.395-6.262-45.635-16.23-65.877-29.525c-18.806-12.019-36.234-26.069-51.968-41.899
			c-14.477-14.371-27.483-30.151-38.827-47.104c-12.408-18.242-22.229-38.114-29.184-59.051
			c-7.973-24.596-1.366-51.585,17.067-69.717l15.189-15.189c4.223-4.242,11.085-4.257,15.326-0.034
			c0.011,0.011,0.023,0.022,0.034,0.034l47.957,47.957c4.242,4.223,4.257,11.085,0.034,15.326c-0.011,0.011-0.022,0.022-0.034,0.034
			l-28.16,28.16c-8.08,7.992-9.096,20.692-2.389,29.867c10.185,13.978,21.456,27.131,33.707,39.339
			c13.659,13.718,28.508,26.197,44.373,37.291c9.167,6.394,21.595,5.316,29.525-2.56l27.221-27.648
			c4.223-4.242,11.085-4.257,15.326-0.034c0.011,0.011,0.022,0.022,0.034,0.034l48.043,48.128
			C391.911,345.502,391.926,352.363,387.703,356.605z" />
                </g>
            </g>
        </symbol>
        <symbol viewBox="0 0 458.2 458.2" id="reload-ico">
            <g fill-rule="evenodd">
                <g>
                    <path style="stroke-width:14;stroke-miterlimit:10;" d="M448.7,218c-1.5-9.3-10.2-15.6-19.5-14.2s-15.6,10.2-14.2,19.5c0,0.1,0,0.2,0.1,0.3
			C424,327,358,400,258.2,424.4C157.4,449,58.9,372.9,41.5,270.6S93,71.2,195.3,53.9c62.9-10.7,127,11.3,170.1,58.4l-75.6,25.2
			c-8.9,3-13.8,12.6-10.8,21.6c0,0,0,0,0,0c3,8.9,12.6,13.8,21.6,10.8c0,0,0,0,0,0l102.4-34.1c7-2.3,11.7-8.8,11.7-16.2V17.1
			c0-9.4-7.6-17.1-17.1-17.1s-17.1,7.6-17.1,17.1v62.3C292.6-4.2,153.5-0.7,69.9,87.2s-80.1,226.9,7.8,310.5s226.9,80.1,310.5-7.8
			C434,341,458.2,286,448.7,218z" />
                </g>
            </g>
        </symbol>
        <symbol viewBox="0 -59 512 512" id="pipe-ico">
            <g fill-rule="evenodd">
                <g>
                    <path d="m497 337.996094h-97.957031v-90h97.957031c8.285156 0 15-6.714844 15-15 0-8.28125-6.714844-15-15-15h-97.957031v-6.996094c0-8.285156-6.714844-15-15-15-8.28125 0-15 6.714844-15 15v6.996094h-31.355469l-21.683594-14.851563v-11.148437h10.039063c8.285156 0 15-6.714844 15-15 0-8.28125-6.714844-15-15-15h-25v-72h50.003906c24.8125 0 44.996094-20.1875 44.996094-44.996094 0-24.8125-20.1875-45-44.996094-45h-190.003906c-24.8125 0-45 20.1875-45 45s20.1875 44.996094 45 44.996094h50.003906v72h-25.085937c-8.285157 0-15 6.71875-15 15 0 8.285156 6.714843 15 15 15h10.042968v11.167968l-21.683594 14.832032h-31.277343v-6.996094c0-8.285156-6.714844-15-15-15-8.28125 0-15 6.714844-15 15v6.996094h-98.042969c-8.285156 0-15 6.71875-15 15 0 8.285156 6.714844 15 15 15h98.046875v90h-98.046875c-8.285156 0-15 6.71875-15 15 0 8.285156 6.714844 15 15 15h98.046875v7c0 8.285156 6.714844 15 15 15 8.28125 0 15-6.714844 15-15v-7h33.324219c6.25 0 11.382812 1.019531 17.160156 3.402344 3.726562 1.535156 39.148438 16.320312 47.257812 19.164062 5.046876 1.765625 10.132813 2.652344 15.214844 2.652344 5.082032 0 10.167969-.886719 15.214844-2.652344 10.359375-3.632812 32.125-12.527344 47.609375-19.042969 5.871094-2.46875 11.089844-3.523437 17.453125-3.523437h32.761719v7c0 8.285156 6.71875 15 15 15 8.285156 0 15-6.714844 15-15v-7h97.957031c8.285156 0 15-6.714844 15-15 0-8.28125-6.714844-15-15-15zm-350.957031-292.996094c0-8.273438 6.730469-15 15-15h190.003906c8.269531 0 14.996094 6.730469 14.996094 15s-6.726563 14.996094-14.996094 14.996094h-190.003906c-8.269531 0-15-6.726563-15-14.996094zm95.003906 44.996094h29.996094v72h-29.996094zm95.234375 248c-10.320312 0-19.5625 1.867187-29.082031 5.871094-16.292969 6.851562-36.804688 15.191406-45.90625 18.382812-3.707031 1.300781-6.871094 1.300781-10.582031 0-7.28125-2.554688-41.980469-17.035156-45.738282-18.585938-9.375-3.863281-18.464844-5.667968-28.601562-5.667968h-33.324219v-90h35.914063c3.023437 0 5.976562-.910156 8.472656-2.617188l32.039062-21.925781c4.085938-2.792969 6.53125-7.425781 6.53125-12.378906v-19.078125h60v19.054687c0 4.949219 2.441406 9.582031 6.523438 12.375l32.042968 21.945313c2.496094 1.710937 5.449219 2.625 8.476563 2.625h36v90zm0 0" />
                </g>
            </g>
        </symbol>
        <symbol viewBox="0 0 46.43 27.3" id="bike-ico">
            <g fill-rule="evenodd">
                <g>
                    <path d="M24.15,20.54l5.19-.29.07.31a8.62,8.62,0,1,0,5.81-10.13l-.31.1L33.06,6.86l.69-1.14a.94.94,0,0,0,.12-.28L34,5.16h.55A1.09,1.09,0,0,0,34.5,3H31A1.08,1.08,0,0,0,29.9,4.07a1.1,1.1,0,0,0,.39.84l.81.68L17,5.38h-.16l-.24,0-2-3.25h4.5a1.09,1.09,0,0,0,0-2.17h-6A1.09,1.09,0,0,0,12,1.09a1.06,1.06,0,0,0,.26.7l.13.15L10,10.14l-.32,0a7.67,7.67,0,0,0-1-.07,8.64,8.64,0,1,0,8.62,8.64,8.69,8.69,0,0,0-4.89-7.79l-.29-.14,1.69-5.81L23.23,20A1.09,1.09,0,0,0,24.15,20.54Zm-9.08-1.87a6.45,6.45,0,1,1-6.45-6.46l.66,0,0,.46L7.58,18.36a1.08,1.08,0,0,0,.74,1.35,1.07,1.07,0,0,0,.82-.09A1.09,1.09,0,0,0,9.66,19l1.79-6.13.41.25A6.47,6.47,0,0,1,15.07,18.67Zm21.29-6.29a6,6,0,0,1,1.45-.17,6.46,6.46,0,1,1-6.16,8.37l-.14-.46,6.37-.36a1.1,1.1,0,0,0,.87-.55,1.05,1.05,0,0,0,0-1l-2.88-5.7Zm-2.76,1.4.37-.31,2.13,4.21L31.39,18l.09-.47A6.48,6.48,0,0,1,33.6,13.78ZM31.73,9.05,33,11.52l-.26.18a8.69,8.69,0,0,0-3.48,6.06l0,.32-3.06.17ZM30,7.74,24.13,17.4,18,7.57Z" />
                </g>
            </g>
        </symbol>
        <symbol viewBox="0 0 512 512" id="forest-ico">
            <g fill-rule="evenodd">
                <g>
                    <path d="M406,421c58.449,0,106-47.103,106-105c0-34.303-17.079-66.251-44.718-85.703C476.863,215.769,482,198.787,482,181
			c0-38.554-25.226-72.608-61.467-85.037C415.507,42.205,370.543,0,316,0c-21.659,0-42.592,6.675-60.143,18.955
			C238.866,7.011,218.229,0,196,0C141.457,0,96.493,42.205,91.467,95.963C55.226,108.392,30,142.446,30,181
			c0,17.787,5.137,34.769,14.718,49.297C17.079,249.749,0,281.697,0,316c0,57.897,47.551,105,106,105h75v61h-75
			c-8.284,0-15,6.716-15,15s6.716,15,15,15h300c8.284,0,15-6.716,15-15s-6.716-15-15-15h-75v-61H406z M316,30
			c41.027,0,75.594,33.855,74.853,77.238c-0.125,7.241,4.942,13.538,12.043,14.964C431.349,127.919,452,152.647,452,181
			c0,16.165-6.383,31.344-17.973,42.74c-7.473,7.348-5.283,19.925,4.232,24.315C464.831,260.316,482,286.986,482,316
			c0,41.355-34.093,75-76,75h-46.596C378.887,371.927,391,345.354,391,316c0-34.303-17.079-66.251-44.718-85.703
			C355.863,215.769,361,198.787,361,181c0-38.602-24.804-72.621-60.464-85.011c-1.953-20.958-9.977-40.16-22.272-55.792
			C289.638,33.568,302.624,30,316,30z M301,482h-90v-61c14.8,0,80.875,0,90,0V482z M286,391c-7.836,0-67.566,0-75,0v-98.787
			l55.606-55.606c5.858-5.858,5.858-15.355,0-21.213c-5.857-5.858-15.355-5.858-21.213,0L211,249.787V106c0-8.284-6.716-15-15-15
			s-15,6.716-15,15v83.787l-34.394-34.393c-5.857-5.858-15.355-5.858-21.213,0c-5.858,5.858-5.858,15.355,0,21.213L181,232.213
			v77.574l-34.394-34.394c-5.857-5.858-15.355-5.858-21.213,0c-5.858,5.858-5.858,15.355,0,21.213L181,352.213V391h-75
			c-41.907,0-76-33.645-76-75c0-29.014,17.169-55.684,43.741-67.944c9.516-4.391,11.705-16.968,4.232-24.315
			C66.383,212.344,60,197.165,60,181c0-28.353,20.651-53.082,49.105-58.798c7.255-1.457,12.98-8.196,11.899-16.97
			C121.411,63.677,154.897,30,196,30c41.103,0,74.589,33.676,74.996,75.231c-1.071,8.684,4.56,15.497,11.899,16.971
			C310.769,127.802,331,152.53,331,181c0,16.165-6.383,31.344-17.973,42.74c-7.473,7.348-5.283,19.925,4.232,24.315
			C343.831,260.316,361,286.986,361,316C361,357.355,327.355,391,286,391z" />
                </g>
            </g>
        </symbol>
        <symbol viewBox="0 0 512.001 512.001" id="leaf-ico">
            <g fill-rule="evenodd">
                <g>
                    <path d="M507.601,486.357l-67.049-67.049c14.984-110.188,1.285-253.633-79.701-334.618C304.945,28.784,223.07,6.681,144.82,1.353
                        C75.446-3.369,20.732,5.762,18.438,6.152C12.321,7.181,7.24,12.063,6.152,18.437C5.76,20.733-3.371,75.449,1.353,144.819
                        c5.33,78.271,27.439,160.133,83.338,216.032c80.477,80.477,223.66,94.791,334.617,79.699l67.05,67.05
                        c5.865,5.866,15.377,5.866,21.243,0C513.467,501.734,513.467,492.223,507.601,486.357z M105.934,339.61
                        c-54.138-54.138-70.429-136.557-74.561-196.167c-2.485-35.816-0.998-67.953,0.892-89.935l95.98,95.98H78.772
                        c-8.296,0-15.021,6.726-15.021,15.021s6.726,15.021,15.021,15.021h79.514l60.085,60.085H102.381
                        c-8.296,0-15.021,6.726-15.021,15.021s6.725,15.021,15.021,15.021h146.033l60.085,60.085H194.582
                        c-8.296,0-15.021,6.726-15.021,15.021s6.726,15.021,15.021,15.021h143.96l53.467,53.467
                        C329.97,418.516,186.809,420.486,105.934,339.61z M413.278,392.036l-53.494-53.494V194.582c0-8.296-6.726-15.021-15.021-15.021
                        c-8.296,0-15.021,6.725-15.021,15.021v113.917l-60.085-60.085V102.381c0-8.296-6.726-15.021-15.021-15.021
                        c-8.296,0-15.021,6.725-15.021,15.021v115.991l-60.085-60.085V78.768c0-8.296-6.725-15.021-15.021-15.021
                        c-8.296,0-15.021,6.726-15.021,15.021v49.477L53.533,32.291c21.537-1.828,52.852-3.258,87.942-0.963
                        c65.989,4.316,145.335,21.806,198.133,74.606C408.447,174.771,421.619,295.017,413.278,392.036z" />
                </g>
            </g>
        </symbol>
        <symbol viewBox="0 0 512 512" id="flower-house-ico">
            <g fill-rule="evenodd">
                <path d="M498.781,223.158l-46.79-46.568V45.009c0-8.284-6.716-14.999-14.999-14.999h-90.996c-8.284,0-14.999,6.716-14.999,14.999
			v11.161l-43.181-42.976c-8.501-8.501-19.799-13.182-31.816-13.182c-12.016,0-23.316,4.682-31.791,13.156L13.193,223.184
			c-17.589,17.588-17.591,46.042,0,63.632c12.863,12.864,31.242,16.119,46.815,10.629v199.544c0,8.284,6.716,14.999,14.999,14.999
			h361.984c8.284,0,14.999-6.716,14.999-14.999V297.443c15.631,5.514,33.99,2.198,46.815-10.628
			C516.379,269.243,516.424,240.8,498.781,223.158z M360.995,60.008h60.997v86.725l-60.997-60.708V60.008z M421.992,481.99H270.999
			v-91.996h14.999c41.353,0,74.997-33.644,74.997-74.997v-29.999c0-8.284-6.716-14.999-14.999-14.999h-29.999
			c-24.507,0-46.303,11.818-59.997,30.051c-13.694-18.233-35.49-30.051-59.997-30.051h-29.999c-8.284,0-14.999,6.716-14.999,14.999
			v29.999c0,41.353,33.644,74.997,74.997,74.997H241v91.996H90.006V273.704l165.993-165.119l165.993,165.118V481.99z
			 M270.999,359.995c0-6.03,0-9.032,0-14.999c0-24.812,20.186-44.998,44.998-44.998h14.999v14.999
			c0,24.812-20.186,44.998-44.998,44.998H270.999z M241,344.996c0,5.968,0,8.97,0,14.999h-14.999
			c-24.812,0-44.998-20.186-44.998-44.998v-14.999h14.999C220.814,299.998,241,320.184,241,344.996z M477.595,265.603
			c-5.835,5.834-15.299,5.908-21.236-0.028C447.72,256.982,280.44,90.583,266.578,76.794c-2.926-2.91-6.752-4.365-10.579-4.365
			c-3.827,0-7.653,1.455-10.578,4.365L64.943,256.323c-0.343,0.311-0.67,0.637-0.983,0.978l-8.348,8.304
			c-5.848,5.847-15.36,5.847-21.208,0c-5.847-5.847-5.847-15.361-0.025-21.183L245.396,34.404c2.835-2.834,6.601-4.396,10.604-4.396
			c4.004,0,7.77,1.561,10.629,4.421c2.607,2.594,207.985,206.999,210.966,209.966C483.442,250.243,483.442,259.757,477.595,265.603z
			" />
            </g>
        </symbol>
        <symbol viewBox="0 0 511.907 511.907" id="clean-home-ico">
            <g fill-rule="evenodd">
                <g>
                    <path d="m465.081 308.946 42.426-42.426c2.813-2.813 4.394-6.628 4.394-10.607s-1.581-7.794-4.394-10.607l-88.782-88.769c.152-.855.245-1.731.245-2.63v-100c0-8.284-6.716-15-15-15h-60c-8.284 0-15 6.716-15 15v12.888l-62.413-62.402c-5.858-5.857-15.355-5.856-21.212.001l-85.385 85.385-15.719-10.749-19.461-40.565c-2.496-5.202-7.754-8.512-13.524-8.512s-11.028 3.31-13.524 8.512l-19.462 40.565-33.695 23.042c-4.088 2.795-6.533 7.429-6.533 12.382s2.445 9.586 6.533 12.382l33.695 23.042 6.987 14.563-80.86 80.9c-5.855 5.858-5.854 15.354.003 21.21l42.426 42.426c2.929 2.929 6.768 4.394 10.606 4.394 1.532 0 3.062-.244 4.536-.711v184.247c0 8.284 6.716 15 15 15h354c8.284 0 15-6.716 15-15v-17.557c.292-.468 20.272-42.019 20.272-42.019l33.695-23.042c4.088-2.795 6.533-7.429 6.533-12.382s-2.445-9.586-6.533-12.382l-33.695-23.042s-19.98-41.551-20.272-42.019v-13.782c5.846 4.037 13.912 3.466 19.113-1.736zm-106.112-240.039h30v57.879l-30-29.995zm-260.447 32.618c2.174-1.487 3.918-3.519 5.057-5.894l7.676-16 7.676 16c1.139 2.375 2.883 4.407 5.057 5.894l18.907 12.929-18.907 12.929c-2.174 1.487-3.918 3.519-5.057 5.894l-7.676 16-7.676-16c-1.139-2.375-2.883-4.407-5.057-5.894l-18.906-12.929zm-62.305 154.417 63.01-63.041c2.796 3.76 7.233 6.052 12.029 6.052 5.77 0 11.028-3.31 13.524-8.512l19.461-40.564 33.695-23.042c4.088-2.795 6.533-7.429 6.533-12.382 0-1.966-.391-3.879-1.111-5.649l72.593-72.593 219.735 219.702-21.212 21.212-187.898-187.897c-5.857-5.858-15.355-5.858-21.213 0l-187.93 187.93zm247.752 150.965h-15c-8.284 0-15 6.716-15 15s6.716 15 15 15h15v45h-60v-110c0-16.542 13.458-30 30-30s30 13.458 30 30zm30 75v-110c0-33.084-26.916-60-60-60s-60 26.916-60 60v110h-102v-196.86l164-164 160 160v52.715l-15.699 32.722-33.695 23.042c-4.088 2.795-6.533 7.429-6.533 12.382s2.445 9.586 6.533 12.382l33.695 23.042 15.699 32.722v11.854h-102zm150.927-79.999-18.907 12.929c-2.174 1.487-3.918 3.519-5.057 5.894l-7.676 16-7.677-16c-1.139-2.375-2.883-4.407-5.057-5.894l-18.906-12.929 18.906-12.929c2.174-1.486 3.918-3.519 5.057-5.894l7.677-16 7.676 16c1.139 2.375 2.883 4.407 5.057 5.894z"/>
                </g>
            </g>
        </symbol>
        <symbol viewBox="0 0 64 64" id="open-arrow-ico">
            <g fill-rule="evenodd">
                <g>
                   <path d="m37.379 12.552c-.799-.761-2.066-.731-2.827.069-.762.8-.73 2.066.069 2.828l15.342 14.551h-39.963c-1.104 0-2 .896-2 2s.896 2 2 2h39.899l-15.278 14.552c-.8.762-.831 2.028-.069 2.828.393.412.92.62 1.448.62.496 0 .992-.183 1.379-.552l17.449-16.62c.756-.755 1.172-1.759 1.172-2.828s-.416-2.073-1.207-2.862z"/>
                </g>
            </g>
        </symbol>
        
        
        
    </defs>
</svg>
